# xmcd
#
# Track frame offsets: 
#        150
#        11325
#        24231
#        35780
#        46320
#        62471
#        74525
#        86975
#        99124
#        112474
#        125487
#        135924
#        146199
#        158101
#        168610
#        183125
#        199234
#        211009
#        230434
#        246484
#        261483
#        273332
#        291520
#        311676
#        327918
#
# Disc length: 4681 seconds
#
# Revision: 0
# Processed by: cddbd v1.5.1PL2 Copyright (c) Steve Scherf et al.
# Submitted via: ExactAudioCopy v0.95b3
#
DISCID=7a124719
DTITLE=Various Artist - Windswept-Trio-Quartet Sampler [CD4]
DYEAR=2004
DGENRE=Pop/Rock
TTITLE0=The Young Rascals - Good Lovin'
TTITLE1=Tommy James and The Shondells - Hanky Panky
TTITLE2=Jamo Thomas - I Spy (For The FBI)
TTITLE3=Bobby Darin - If I Were A Carpenter
TTITLE4=Ike and Tina Turner - River Deep Mountain High
TTITLE5=The Lovin' Spoonful - Summer In The City
TTITLE6=Crispian St. Peters - The Pied Piper
TTITLE7=The Left Banke - Walk Away Renee
TTITLE8=The Mamas and The Papas - Dedicated To The One I Love
TTITLE9=The Turtles - Happy Together
TTITLE10=The Turtles - She'd Rather Be With Me
TTITLE11=Louis Armstrong - What A Wonderful World
TTITLE12=James Brown - I Got The Feelin'
TTITLE13=Ohio Express - Yummy Yummy Yummy
TTITLE14=Three Dog Night - Celebrate (Celebrity Ball)
TTITLE15=Joe Cocker - Darlin' Be Home Soon
TTITLE16=The Beach Boys - I Can Hear Music
TTITLE17=Melanie With The Edwin Hawkins Singers - Lay Down (Candels In
TTITLE17=The Rain)
TTITLE18=Liza Minelli - Cabaret
TTITLE19=The Main Ingerdient - Everybody Plays The Fool
TTITLE20=Joe Tex - I Gotcha
TTITLE21=Melanie - What Have They Done To My Song. Ma
TTITLE22=Joel Grey - Willkommen
TTITLE23=The 5th Dimension - Day By Day
TTITLE24=James Brown - Doing It To Death (Gonna Have A Funky Good Time
TTITLE24=)
EXTD=
EXTT0=
EXTT1=
EXTT2=
EXTT3=
EXTT4=
EXTT5=
EXTT6=
EXTT7=
EXTT8=
EXTT9=
EXTT10=
EXTT11=
EXTT12=
EXTT13=
EXTT14=
EXTT15=
EXTT16=
EXTT17=
EXTT18=
EXTT19=
EXTT20=
EXTT21=
EXTT22=
EXTT23=
EXTT24=
PLAYORDER=
